<?xml version="1.0" encoding="utf-8"?>
<!-- Generator: Adobe Illustrator 23.0.2, SVG Export Plug-In . SVG Version: 6.00 Build 0)  -->
<svg version="1.1" id="Layer_1" xmlns="http://www.w3.org/2000/svg" xmlns:xlink="http://www.w3.org/1999/xlink" x="0px" y="0px"
	 viewBox="0 0 12.5 12" style="enable-background:new 0 0 12.5 12;" xml:space="preserve">
<style type="text/css">
	.st0{fill:#D22856;}
</style>
<g>
	<path class="st0" d="M6.2,12c-0.2,0-0.4-0.1-0.6-0.2C1.9,7.4,1,6.4,0.8,6.2h0C0.3,5.5,0,4.7,0,3.8C0,1.7,1.7,0,3.8,0
		c0.9,0,1.8,0.3,2.5,0.9C7,0.3,7.8,0,8.7,0c2.1,0,3.8,1.7,3.8,3.8c0,0.9-0.3,1.8-0.9,2.4l-4.9,5.6C6.6,11.9,6.4,12,6.2,12L6.2,12z
		 M2,5.3c0.2,0.3,2.5,2.8,4.2,4.9l4.3-4.9c0.3-0.4,0.5-0.9,0.5-1.4c0-1.3-1-2.3-2.3-2.3C8,1.5,7.3,1.8,6.8,2.4
		C6.7,2.6,6.5,2.7,6.3,2.7C6,2.7,5.8,2.6,5.7,2.4C5.2,1.8,4.6,1.5,3.8,1.5c-1.3,0-2.3,1-2.3,2.3C1.5,4.5,1.7,5,2,5.3
		C2,5.3,2,5.3,2,5.3z"/>
</g>
<rect x="1.5" y="1.5" class="st0" width="9.6" height="4.5"/>
<rect x="2.2" y="4.6" class="st0" width="8" height="2.3"/>
<rect x="2.8" y="6.6" class="st0" width="6.6" height="1.5"/>
<rect x="4.2" y="7.7" class="st0" width="4.1" height="1.8"/>
<rect x="5.5" y="9.1" class="st0" width="1.4" height="1.4"/>
</svg>
