<?xml version="1.0" encoding="utf-8"?>
<!-- Generator: Adobe Illustrator 23.0.2, SVG Export Plug-In . SVG Version: 6.00 Build 0)  -->
<svg version="1.1" id="Layer_1" xmlns="http://www.w3.org/2000/svg" xmlns:xlink="http://www.w3.org/1999/xlink" x="0px" y="0px"
	 viewBox="0 0 298 345.1" style="enable-background:new 0 0 298 345.1;" xml:space="preserve">
<style type="text/css">
	.st0{fill:#DEDEDE;}
	.st1{fill:#D22856;}
	.st2{display:none;fill:#DDDDDD;}
	.st3{display:none;fill:#FEFEFE;}
	.st4{display:none;fill:#D22B58;}
	.st5{display:none;fill:#FEFDFD;}
	.st6{fill:#D22D5A;}
	.st7{fill:#D22B58;}
	.st8{display:none;fill:#FCF3F5;}
</style>
<path class="st0" d="M264.6,102.1l5.4-5.4c7.7-7.7,9.1-18.9,3.1-24.9c-6-6-17.2-4.6-24.9,3.1l-5.4,5.4c-21-17-46.6-28.4-74.7-32
	v-9.6h7.7c10.9,0,19.8-8.7,19.8-19.4S186.6,0,175.7,0h-53.3c-10.9,0-19.8,8.7-19.8,19.4s8.9,19.4,19.8,19.4h7.7v9.6
	C56.7,57.6,0,120.2,0,196.1c0,82.3,66.7,149,149,149c82.3,0,149-66.7,149-149C298,160.4,285.5,127.7,264.6,102.1z M149,306.3
	c-60.8,0-110.2-49.3-110.2-110.2S88.2,85.9,149,85.9c60.8,0,110.2,49.3,110.2,110.2S209.8,306.3,149,306.3z"/>
<path class="st1" d="M149,85.9c-60.8,0-110.2,49.3-110.2,110.2S88.2,306.3,149,306.3s110.2-49.3,110.2-110.2
	C259.2,135.3,209.8,85.9,149,85.9z M149,292.5c-53,0-95.9-43-95.9-95.9s43-95.9,95.9-95.9c53,0,95.9,43,95.9,95.9
	S202,292.5,149,292.5z"/>
<g>
	<g>
		<path class="st2" d="M114,0.1c23.3,0,46.7,0,70,0c0.1,2.1,2,2.6,3.2,3.5c10.3,7.4,11.5,20.3,2.6,29.3c-4.7,4.7-10.2,6.5-16.7,6.3
			c-1.8-0.1-4.1-1-5,1.9c-1.4,4.6,0.3,7.3,5.1,8c3.1,0.5,6.2,1,9.3,1.7c20.5,4.7,39.3,13.3,56.1,26.1c3.1,2.4,5.3,2.4,8-0.7
			c3.2-3.7,7.4-6.1,12.2-7.5c11.5-3.4,20.3,5.1,17.8,16.9c-1.2,5.8-4.9,9.7-8.9,13.5c-1.6,1.5-3,2.7-0.9,5.3
			c15.3,19.5,24.8,41.5,29.3,65.8c0.2,1.4,0.3,2.7,2.1,2.9c0,15.3,0,30.7,0,46c-3.4,1.2-2.3,4.5-2.8,6.8
			c-7.5,36.8-26.8,66.1-56.1,89.1c-18.7,14.6-40,23.4-63.2,27.9c-1.5,0.3-3.6-0.3-3.9,2.2c-15.3,0-30.7,0-46,0
			c-1.2-3.4-4.5-2.3-6.8-2.8c-36.8-7.5-66.1-26.8-89.1-56.1c-14.6-18.7-23.4-40-27.9-63.2c-0.3-1.5,0.3-3.6-2.2-3.9
			c0-15.3,0-30.7,0-46c2.5-0.3,1.9-2.4,2.2-3.9c5.1-26.2,15.7-49.8,33.3-69.9C59.3,72,89.1,54.5,125.3,49c4.1-0.6,4.9-2.8,4.8-6.5
			c-0.1-4-2.7-3.4-5.2-3.4c-1.3,0-2.7,0.1-4,0c-7.9-0.5-15.8-7-17.9-14.6c-2.2-8.2,0.6-15.8,7.7-20.9C112,2.6,113.9,2.1,114,0.1z
			 M148.5,69c-68.2-0.7-124.9,55-126.6,123.3c-1.7,70.7,55.1,128.3,123.7,129.9c70.6,1.6,128.2-55.3,129.6-123.9
			C276.6,126.9,218.3,68.3,148.5,69z"/>
		<path class="st3" d="M114,0.1c-0.1,2.1-2,2.6-3.2,3.5c-7.1,5.1-9.9,12.7-7.7,20.9c2,7.6,10,14.1,17.9,14.6c1.3,0.1,2.7,0,4,0
			c2.4,0,5.1-0.6,5.2,3.4c0.1,3.7-0.7,5.9-4.8,6.5c-36.2,5.5-66,22.9-89.9,50.3C17.9,119.4,7.2,143,2.2,169.2
			c-0.3,1.5,0.3,3.6-2.2,3.9C0,116.7,0,60.2-0.1,3.8c0-3,0.5-3.9,3.8-3.9C40.5,0.1,77.2,0.1,114,0.1z"/>
		<path class="st3" d="M298,173.1c-1.8-0.2-1.8-1.5-2.1-2.9c-4.5-24.3-14-46.4-29.3-65.8c-2.1-2.6-0.7-3.8,0.9-5.3
			c4-3.8,7.6-7.7,8.9-13.5c2.5-11.7-6.2-20.2-17.8-16.9c-4.7,1.4-8.9,3.8-12.2,7.5c-2.6,3.1-4.8,3-8,0.7
			c-16.8-12.8-35.5-21.4-56.1-26.1c-3.1-0.7-6.2-1.2-9.3-1.7c-4.8-0.8-6.5-3.5-5.1-8c0.9-2.8,3.2-2,5-1.9c6.5,0.2,12.1-1.5,16.7-6.3
			c8.9-9,7.8-21.9-2.6-29.3c-1.3-0.9-3.2-1.4-3.2-3.5c36.8,0,73.7,0,110.5-0.1c3,0,3.6,0.6,3.6,3.6C298,60.1,298,116.6,298,173.1z"
			/>
		<path class="st3" d="M0,219.1c2.5,0.3,1.9,2.4,2.2,3.9c4.6,23.2,13.3,44.5,27.9,63.2c23,29.3,52.3,48.6,89.1,56.1
			c2.3,0.5,5.6-0.6,6.8,2.8c-40.8,0-81.5,0-122.3,0.1c-3.1,0-3.8-0.7-3.8-3.8C0,300.6,0,259.8,0,219.1z"/>
		<path class="st3" d="M172,345.1c0.3-2.5,2.4-1.9,3.9-2.2c23.2-4.6,44.5-13.3,63.2-27.9c29.3-23,48.6-52.3,56.1-89.1
			c0.5-2.3-0.6-5.6,2.8-6.8c0,40.8,0,81.7,0.1,122.5c0,3-0.6,3.6-3.6,3.6C253.7,345,212.8,345.1,172,345.1z"/>
		<path class="st4" d="M148.5,69c69.8-0.8,128.1,57.8,126.7,129.2c-1.4,68.6-59,125.5-129.6,123.9c-68.6-1.5-125.4-59.1-123.7-129.9
			C23.6,124.1,80.3,68.4,148.5,69z M258.4,196.3c0-60.8-49.2-110.2-109.6-110.3C88.5,86,38.7,135.2,38.7,194.9
			C38.6,256.1,87.2,306,146.8,306C209.1,306.1,258.4,257.6,258.4,196.3z"/>
		<path class="st5" d="M258.4,196.3c0,61.3-49.3,109.8-111.6,109.7c-59.7,0-108.2-49.9-108.2-111.2C38.7,135.2,88.5,86,148.8,86.1
			C209.3,86.1,258.5,135.6,258.4,196.3z M203.6,176.3c0-5.3,0-10.7,0-16c0-11.1,0-10.8-11.2-11.2c-4.6-0.2-7.1,1.6-9.5,5.3
			c-9.5,14.5-19,28.9-29.1,42.9c-3.7,5.2-5.3,10.4-4.9,16.6c0.2,2.6,0.8,3.4,3.4,3.4c7.5-0.1,15,0,22.5,0c10.6,0,10.6,0,10.6,10.7
			c0,7.1,0,7.1,7.1,7.1c11,0,11,0,11-10.7c0-6.8,0-7,6.7-7.1c2.9,0,3.9-1,3.6-3.8c-0.1-1.1,0-2.3,0-3.5c0-6.6,0-6.8-6.5-6.8
			c-3.1,0-3.9-1.1-3.9-4C203.7,191.6,203.6,183.9,203.6,176.3z M107.5,219.9c-0.2-0.4-0.4-0.7-0.6-1.1c5.5-5.2,11.1-10.4,16.5-15.6
			c6-5.8,11.9-11.7,15.4-19.4c7.4-16.2-0.2-31.8-17.5-35c-10.4-2-20.6-0.6-29.7,5.3c-8.8,5.6-8.8,5.6-2.3,13.3
			c0.3,0.4,0.7,0.7,0.9,1.2c1.9,3,3.7,3.6,6.9,1c4.4-3.7,9.5-6.1,15.4-6.2c7.1-0.1,10.8,3.8,10.6,10.8c-0.2,5.7-3,10.3-6.6,14.2
			c-8.8,9.5-17.7,19-27.1,28c-4.4,4.2-6.1,8.4-5.8,14.4c0.2,3.9,1.3,4.6,4.9,4.6c14.8-0.2,29.6-0.1,44.4-0.1c11,0,10.9,0,11-10.8
			c0-3.5-1.1-4.5-4.5-4.4C128.8,220,118.2,219.9,107.5,219.9z"/>
		<path class="st6" d="M203.6,176.3c0,7.7,0.1,15.3-0.1,23c-0.1,3,0.7,4.1,3.9,4c6.5,0,6.5,0.1,6.5,6.8c0,1.2-0.1,2.3,0,3.5
			c0.3,2.8-0.7,3.8-3.6,3.8c-6.7,0.1-6.7,0.2-6.7,7.1c0,10.7,0,10.7-11,10.7c-7.1,0-7.1,0-7.1-7.1c0-10.7,0-10.7-10.6-10.7
			c-7.5,0-15-0.1-22.5,0c-2.6,0.1-3.3-0.8-3.4-3.4c-0.4-6.2,1.1-11.4,4.9-16.6c10.1-14.1,19.6-28.5,29.1-42.9
			c2.4-3.7,4.9-5.4,9.5-5.3c11.2,0.4,11.2,0.1,11.2,11.2C203.6,165.6,203.6,171,203.6,176.3z M165.3,203.2c6.4,0,11.7,0,17,0
			c1.9,0,3.2-0.2,3.2-2.6c-0.1-9.5,0-19,0-28.5C179,182.3,172.4,192.3,165.3,203.2z"/>
		<path class="st7" d="M107.5,219.9c10.6,0,21.3,0.1,31.9-0.1c3.4-0.1,4.5,0.9,4.5,4.4c-0.1,10.8,0.1,10.8-11,10.8
			c-14.8,0-29.6-0.1-44.4,0.1c-3.6,0-4.7-0.7-4.9-4.6c-0.3-6,1.4-10.2,5.8-14.4c9.4-9,18.2-18.5,27.1-28c3.7-3.9,6.4-8.5,6.6-14.2
			c0.2-7-3.5-10.9-10.6-10.8c-5.9,0-11.1,2.5-15.4,6.2c-3.1,2.6-5,2-6.9-1c-0.3-0.4-0.6-0.8-0.9-1.2c-6.5-7.8-6.5-7.8,2.3-13.3
			c9.2-5.8,19.4-7.2,29.7-5.3c17.3,3.3,24.9,18.8,17.5,35c-3.5,7.7-9.3,13.7-15.4,19.4c-5.5,5.2-11,10.4-16.5,15.6
			C107.1,219.1,107.3,219.5,107.5,219.9z"/>
		<path class="st8" d="M165.3,203.2c7.1-10.9,13.6-21,20.2-31.1c0,9.5,0,19,0,28.5c0,2.4-1.3,2.6-3.2,2.6
			C177.1,203.2,171.8,203.2,165.3,203.2z"/>
	</g>
</g>
</svg>
